<svg width="24" height="24" viewBox="0 0 24 24" fill="none" xmlns="http://www.w3.org/2000/svg">
<path d="M12 0C9.62663 0 7.30655 0.703787 5.33316 2.02236C3.35977 3.34094 1.8217 5.21508 0.913451 7.4078C0.00519937 9.60051 -0.232441 12.0133 0.230582 14.3411C0.693604 16.6689 1.83649 18.807 3.51472 20.4853C5.19295 22.1635 7.33115 23.3064 9.65892 23.7694C11.9867 24.2324 14.3995 23.9948 16.5922 23.0865C18.7849 22.1783 20.6591 20.6402 21.9776 18.6668C23.2962 16.6934 24 14.3734 24 12C24 8.8174 22.7357 5.76515 20.4853 3.51472C18.2348 1.26428 15.1826 0 12 0ZM12 22.5C9.9233 22.5 7.89323 21.8842 6.16652 20.7304C4.4398 19.5767 3.09399 17.9368 2.29927 16.0182C1.50455 14.0995 1.29661 11.9883 1.70176 9.95155C2.1069 7.91475 3.10693 6.04383 4.57538 4.57538C6.04383 3.10693 7.91476 2.1069 9.95156 1.70175C11.9884 1.29661 14.0996 1.50454 16.0182 2.29926C17.9368 3.09398 19.5767 4.4398 20.7304 6.16651C21.8842 7.89323 22.5 9.92329 22.5 12C22.5 14.7848 21.3938 17.4555 19.4246 19.4246C17.4555 21.3937 14.7848 22.5 12 22.5Z" fill="#4E4D4D"/>
<path d="M16.5 11.25H7.5C7.30109 11.25 7.11032 11.329 6.96967 11.4697C6.82902 11.6103 6.75 11.8011 6.75 12C6.75 12.1989 6.82902 12.3897 6.96967 12.5303C7.11032 12.671 7.30109 12.75 7.5 12.75H16.5C16.6989 12.75 16.8897 12.671 17.0303 12.5303C17.171 12.3897 17.25 12.1989 17.25 12C17.25 11.8011 17.171 11.6103 17.0303 11.4697C16.8897 11.329 16.6989 11.25 16.5 11.25Z" fill="#4E4D4D"/>
</svg>
