<svg width="40" height="40" viewBox="0 0 40 40" fill="none" xmlns="http://www.w3.org/2000/svg">
<path d="M20 26.6667C19.6106 26.6674 19.2332 26.5318 18.9333 26.2833L8.93331 17.95C8.59295 17.6671 8.37891 17.2606 8.33828 16.8199C8.29765 16.3792 8.43375 15.9404 8.71665 15.6C8.99954 15.2597 9.40606 15.0456 9.84677 15.005C10.2875 14.9643 10.7263 15.1004 11.0666 15.3833L20 22.85L28.9333 15.65C29.1038 15.5116 29.3 15.4082 29.5105 15.3458C29.7211 15.2834 29.9419 15.2633 30.1603 15.2865C30.3787 15.3097 30.5903 15.3759 30.783 15.4812C30.9758 15.5865 31.1458 15.7288 31.2833 15.9C31.4359 16.0714 31.5515 16.2724 31.6229 16.4905C31.6942 16.7087 31.7197 16.9392 31.6978 17.1676C31.6759 17.396 31.607 17.6175 31.4956 17.8181C31.3841 18.0187 31.2324 18.1941 31.05 18.3333L21.05 26.3833C20.7415 26.5925 20.3718 26.6923 20 26.6667V26.6667Z" fill="white"/>
</svg>
